<svg xmlns="http://www.w3.org/2000/svg" width="480" height="618" viewBox="0 0 480 618" fill="none" role="img" aria-labelledby="title">
<title id="title">Quirocenter Cieza: marketing, landing pública y aplicación interna de citas. Código privado. Visitar quirocentercieza.com.</title>
<defs>
<linearGradient id="bg" x1="0" y1="0" x2="480" y2="618" gradientUnits="userSpaceOnUse"><stop stop-color="#08131D"/><stop offset=".58" stop-color="#0A1520"/><stop offset="1" stop-color="#0C202A"/></linearGradient>
<linearGradient id="edge"><stop stop-color="#50D9E5" stop-opacity=".72"/><stop offset=".65" stop-color="#397389" stop-opacity=".12"/><stop offset="1" stop-color="#69DCCF" stop-opacity=".3"/></linearGradient>
<radialGradient id="aura"><stop stop-color="#4DCEDA" stop-opacity=".14"/><stop offset="1" stop-color="#4DCEDA" stop-opacity="0"/></radialGradient>
<pattern id="grid" width="32" height="32" patternUnits="userSpaceOnUse"><path d="M32 0H0V32" stroke="#67B7C6" stroke-opacity=".045"/></pattern>
<clipPath id="clip"><rect x="1" y="1" width="478" height="616" rx="14"/></clipPath>
</defs>
<style>
text{font-family:'Segoe UI',Arial,sans-serif}.mono{font-family:Consolas,'Liberation Mono',monospace}
.spin{animation:spin 24s linear infinite;transform-box:fill-box;transform-origin:center}.counter{animation:spin 36s linear infinite reverse;transform-box:fill-box;transform-origin:center}
.pulse{animation:pulse 3s ease-in-out infinite}.flow{stroke-dasharray:4 14;animation:flow 4s linear infinite}.sweep{animation:sweep 4.8s ease-in-out infinite}
.bar{animation:bar 3.4s ease-in-out infinite;transform-box:fill-box;transform-origin:bottom}.d1{animation-delay:-1.1s}.d2{animation-delay:-2.2s}
@keyframes spin{to{transform:rotate(360deg)}}@keyframes pulse{50%{opacity:.3}}@keyframes flow{to{stroke-dashoffset:-90}}@keyframes sweep{50%{transform:translateY(57px);opacity:.2}}@keyframes bar{50%{transform:scaleY(.48)}}
@media(prefers-reduced-motion:reduce){.spin,.counter,.pulse,.flow,.sweep,.bar{animation:none}}
</style>
<rect x="0.5" y="0.5" width="479" height="617" rx="14" fill="url(#bg)" stroke="#28414F"/>
<g clip-path="url(#clip)"><rect width="480" height="618" fill="url(#grid)"/><circle cx="420" cy="598" r="200" fill="url(#aura)"/>
<path d="M28 1H452" fill="none" stroke="url(#edge)"/><path d="M28 617H452" fill="none" stroke="url(#edge)"/>
<path d="M17 43V17H43M437 601H463V575" fill="none" stroke="#63B5C4" stroke-opacity=".45"/>
<circle cx="34" cy="35" r="2.5" fill="#86E6D8" class="pulse"/><text x="47" y="39" font-size="9" fill="#69C6D2" class="mono" letter-spacing="1.2" >PROYECTO / QUIROCENTER CIEZA</text>
<text x="449" y="39" font-size="10" fill="#588396" class="mono" letter-spacing="1.2" text-anchor="end">03</text>
<text x="28" y="97" font-size="31" fill="#EDF8FF" font-weight="630">Quirocenter Cieza</text><text x="28" y="128" font-size="16" fill="#9BB5C6" >Marketing y digitalización para un negocio real.</text><rect x="28" y="155" width="424" height="181" rx="8" fill="#0B1D28" stroke="#284858"/><text x="45" y="180" font-size="9" fill="#69C6D2" class="mono" letter-spacing="1.2" >01 / SITIO WEB</text><g transform="translate(45 196)"><rect x="0" y="0" width="181" height="123" rx="8" fill="#081A24" stroke="#2A5666"/><path d="M0 21H181" fill="none" stroke="#285362" /><circle cx="12" cy="10" r="2" fill="#77CCD3"/><circle cx="21" cy="10" r="2" fill="#365F70"/><path d="M16 43H103.16999999999999M16 56H83.26" fill="none" stroke="#7FB3C6" stroke-width="4"/><path d="M16 73H108.6M16 84H94.12" fill="none" stroke="#2F5A6A" stroke-width="3"/><rect x="16" y="97" width="70" height="12" rx="8" fill="#235A65"/><rect x="123" y="38" width="39" height="60" rx="8" fill="#10303E" stroke="#316475"/><path class="sweep" d="M9 35H172" stroke="#84F2F4" stroke-opacity=".25"/></g><text x="246" y="231" font-size="17" fill="#D7EDF5" font-weight="550">Landing pública</text><text x="246" y="259" font-size="16" fill="#9BB5C6" >Servicios y contacto.</text><text x="246" y="282" font-size="16" fill="#6FA6B7" >Presencia digital.</text><rect x="28" y="357" width="424" height="181" rx="8" fill="#0B1D28" stroke="#284858"/><text x="45" y="382" font-size="9" fill="#69C6D2" class="mono" letter-spacing="1.2" >02 / APLICACIÓN</text><g transform="translate(45 398)"><rect x="0" y="0" width="181" height="123" rx="8" fill="#081A24" stroke="#2A5666"/><path d="M0 21H181" fill="none" stroke="#285362" /><text x="13" y="15" font-size="8" fill="#69C6D2" class="mono" letter-spacing="1.2" >AGENDA</text><rect x="14" y="35" width="35.25" height="16" rx="8" fill="#245B68" class="pulse d2"/><rect x="53.25" y="35" width="35.25" height="16" rx="8" fill="#15323F" /><rect x="92.5" y="35" width="35.25" height="16" rx="8" fill="#15323F" /><rect x="131.75" y="35" width="35.25" height="16" rx="8" fill="#245B68" class="pulse d2"/><rect x="14" y="60" width="35.25" height="16" rx="8" fill="#15323F" /><rect x="53.25" y="60" width="35.25" height="16" rx="8" fill="#15323F" /><rect x="92.5" y="60" width="35.25" height="16" rx="8" fill="#245B68" class="pulse d1"/><rect x="131.75" y="60" width="35.25" height="16" rx="8" fill="#15323F" /><rect x="14" y="85" width="35.25" height="16" rx="8" fill="#15323F" /><rect x="53.25" y="85" width="35.25" height="16" rx="8" fill="#245B68" class="pulse d1"/><rect x="92.5" y="85" width="35.25" height="16" rx="8" fill="#15323F" /><rect x="131.75" y="85" width="35.25" height="16" rx="8" fill="#15323F" /></g><text x="246" y="433" font-size="17" fill="#D7EDF5" font-weight="550">Gestión de citas</text><text x="246" y="461" font-size="16" fill="#9BB5C6" >Operación interna.</text><text x="246" y="484" font-size="16" fill="#6FA6B7" >Código privado.</text><text x="28" y="575" font-size="9" fill="#71CFD8" class="mono" letter-spacing="1.2" >VISITAR SITIO WEB</text><text x="452" y="575" font-size="16" fill="#ACECEF" text-anchor="end">quirocentercieza.com ↗</text><path d="M28 591H452" fill="none" class="flow" stroke="#4994A5"/>
</g></svg>
